<svg enable-background="new 0 0 512 512" height="512" viewBox="0 0 512 512" width="512" xmlns="http://www.w3.org/2000/svg"><path d="m141.737 409.962 31.514 4.502c5.725-8.703 15.573-14.464 26.749-14.464v-280c0-3.228.054-6.418.159-9.567-.081.405-.134.82-.152 1.243-2.931 72.392-39.581 134.471-72.008 189.258v93.189c.001 7.962 5.856 14.712 13.738 15.839z" fill="#b6b8be"/><path d="m80 448c0 2.254.939 4.313 2.469 5.778-1.53-1.465-2.469-3.525-2.469-5.782z" fill="#b6b8be"/><path d="m173.251 414.464-31.514-4.502c-7.882-1.126-13.737-7.877-13.737-15.839v-93.189c-.067.114-.136.23-.203.344-25.649 43.335-47.797 80.765-47.797 114.722v31.997c0 2.256.939 4.316 2.469 5.782 1.19 1.14 2.737 1.919 4.476 2.151l81.055 10.806v-34.736c0-6.471 1.936-12.496 5.251-17.536z" fill="#ef8354"/><path d="m432 448v-.003c0 2.256-.939 4.316-2.469 5.782 1.529-1.466 2.469-3.525 2.469-5.779z" fill="#b6b8be"/><path d="m312 400c11.176 0 21.024 5.761 26.749 14.464l31.514-4.502c7.882-1.126 13.737-7.877 13.737-15.839v-93.189c-32.427-54.787-69.076-116.866-72.008-189.258-.017-.423-.071-.838-.152-1.243.106 3.149.159 6.339.159 9.567v280z" fill="#b6b8be"/><path d="m384.203 301.277c-.067-.114-.136-.23-.203-.344v93.189c0 7.962-5.855 14.713-13.737 15.839l-31.514 4.502c3.315 5.041 5.251 11.066 5.251 17.537v34.736l81.055-10.807c1.74-.232 3.286-1.012 4.476-2.151 1.53-1.465 2.469-3.525 2.469-5.782v-31.996c0-33.957-22.149-71.387-47.797-114.723z" fill="#ef8354"/><path d="m200 400c5.827 0 11.29 1.572 16 4.304v-284.304-12.965c0-1.938.879-3.809 2.471-5.266 9.57-8.749 23.251-13.769 37.529-13.769s27.959 5.02 37.529 13.77c1.592 1.457 2.471 3.328 2.471 5.266v12.964 284.304c4.71-2.732 10.173-4.304 16-4.304v-280c0-3.228-.054-6.418-.159-9.567-2.131-63.597-25.426-110.433-55.841-110.433s-53.71 46.836-55.841 110.433c-.105 3.149-.159 6.339-.159 9.567z" fill="#e3e6e9"/><path d="m288 128h-64c-5.527 0-8-3.582-8-8v284.304c7.323 4.247 12.821 11.306 14.988 19.696h17.012v-96c0-4.418 3.578-8 8-8s8 3.582 8 8v96h17.012c2.167-8.39 7.664-15.449 14.988-19.696v-284.304c0 4.418-2.473 8-8 8z" fill="#d5d9de"/><path d="m281.012 424h-17.012v56h16v-48c0-2.762.352-5.442 1.012-8z" fill="#2d3142"/><path d="m230.987 424c.661 2.558 1.012 5.238 1.012 8v48h16v-56z" fill="#2d3142"/><path d="m230.987 424c-2.167-8.39-7.664-15.449-14.988-19.696-4.71-2.732-10.173-4.304-16-4.304-11.176 0-21.024 5.761-26.749 14.464-3.314 5.04-5.25 11.065-5.25 17.536v34.736 13.264h40 16 8v-48c0-2.762-.352-5.442-1.013-8z" fill="#7a8190"/><path d="m264 328c0-4.418-3.578-8-8-8s-8 3.582-8 8v96 56 24c0 4.418 3.578 8 8 8s8-3.582 8-8v-24-56z" fill="#ef8354"/><path d="m224 128h64c5.527 0 8-3.582 8-8v-12.965c0-1.938-.879-3.809-2.471-5.266-9.57-8.749-23.252-13.769-37.529-13.769s-27.959 5.02-37.529 13.77c-1.592 1.457-2.471 3.328-2.471 5.266v12.964c0 4.418 2.472 8 8 8z" fill="#2d3142"/><path d="m208 480h-40v24c0 4.418 3.578 8 8 8h48c4.422 0 8-3.582 8-8v-24h-8z" fill="#2d3142"/><path d="m344 432c0-6.471-1.936-12.496-5.251-17.536-5.725-8.703-15.573-14.464-26.749-14.464-5.827 0-11.29 1.572-16 4.304-7.323 4.247-12.821 11.306-14.988 19.696-.661 2.558-1.012 5.238-1.012 8v48h8 16 40v-13.263z" fill="#7a8190"/><path d="m288 480h-8v24c0 4.418 3.578 8 8 8h48c4.422 0 8-3.582 8-8v-24h-40z" fill="#2d3142"/></svg>