<svg enable-background="new 0 0 511 511" viewBox="0 0 511 511" xmlns="http://www.w3.org/2000/svg"><g fill="#2d3142"><path d="m255.5 136c-65.893 0-119.5 53.607-119.5 119.5s53.607 119.5 119.5 119.5 119.5-53.607 119.5-119.5-53.607-119.5-119.5-119.5zm0 224c-57.622 0-104.5-46.878-104.5-104.5s46.878-104.5 104.5-104.5 104.5 46.878 104.5 104.5-46.878 104.5-104.5 104.5z"/><path d="m255.5 71c4.142 0 7.5-3.358 7.5-7.5v-56c0-4.142-3.358-7.5-7.5-7.5s-7.5 3.358-7.5 7.5v56c0 4.142 3.358 7.5 7.5 7.5z"/><path d="m255.5 119c4.142 0 7.5-3.358 7.5-7.5v-16c0-4.142-3.358-7.5-7.5-7.5s-7.5 3.358-7.5 7.5v16c0 4.142 3.358 7.5 7.5 7.5z"/><path d="m255.5 440c-4.142 0-7.5 3.358-7.5 7.5v56c0 4.142 3.358 7.5 7.5 7.5s7.5-3.358 7.5-7.5v-56c0-4.142-3.358-7.5-7.5-7.5z"/><path d="m255.5 392c-4.142 0-7.5 3.358-7.5 7.5v16c0 4.142 3.358 7.5 7.5 7.5s7.5-3.358 7.5-7.5v-16c0-4.142-3.358-7.5-7.5-7.5z"/><path d="m503.5 248h-56c-4.142 0-7.5 3.358-7.5 7.5s3.358 7.5 7.5 7.5h56c4.142 0 7.5-3.358 7.5-7.5s-3.358-7.5-7.5-7.5z"/><path d="m399.5 248c-4.142 0-7.5 3.358-7.5 7.5s3.358 7.5 7.5 7.5h16c4.142 0 7.5-3.358 7.5-7.5s-3.358-7.5-7.5-7.5z"/><path d="m71 255.5c0-4.142-3.358-7.5-7.5-7.5h-56c-4.142 0-7.5 3.358-7.5 7.5s3.358 7.5 7.5 7.5h56c4.142 0 7.5-3.358 7.5-7.5z"/><path d="m95.5 248c-4.142 0-7.5 3.358-7.5 7.5s3.358 7.5 7.5 7.5h16c4.142 0 7.5-3.358 7.5-7.5s-3.358-7.5-7.5-7.5z"/><path d="m148.374 352.02-66.177 66.177c-2.929 2.929-2.929 7.678 0 10.606 1.464 1.465 3.384 2.197 5.303 2.197s3.839-.732 5.303-2.197l66.177-66.177c2.929-2.929 2.929-7.678 0-10.606-2.929-2.929-7.678-2.929-10.606 0z"/><path d="m357.323 161.177c1.919 0 3.839-.732 5.303-2.197l66.177-66.177c2.929-2.929 2.929-7.678 0-10.606-2.929-2.929-7.678-2.929-10.606 0l-66.177 66.177c-2.929 2.929-2.929 7.678 0 10.606 1.464 1.464 3.384 2.197 5.303 2.197z"/><path d="m193.464 125.332c1.196 2.888 3.989 4.632 6.932 4.632.957 0 1.929-.184 2.867-.573 3.827-1.585 5.644-5.973 4.059-9.799l-24.492-59.128c-1.585-3.827-5.973-5.644-9.799-4.059-3.827 1.585-5.644 5.973-4.059 9.799z"/><path d="m317.536 385.668c-1.585-3.827-5.972-5.643-9.799-4.059-3.827 1.585-5.644 5.973-4.059 9.799l24.492 59.128c1.196 2.888 3.989 4.632 6.932 4.632.957 0 1.929-.184 2.867-.573 3.827-1.585 5.644-5.973 4.059-9.799z"/><path d="m362.626 352.02c-2.929-2.929-7.678-2.929-10.606 0-2.929 2.929-2.929 7.678 0 10.606l66.177 66.177c1.464 1.464 3.384 2.197 5.303 2.197s3.839-.732 5.303-2.197c2.929-2.929 2.929-7.678 0-10.606z"/><path d="m148.374 158.98c1.464 1.464 3.384 2.197 5.303 2.197s3.839-.732 5.303-2.197c2.929-2.929 2.929-7.678 0-10.606l-66.177-66.177c-2.929-2.929-7.678-2.929-10.606 0-2.929 2.929-2.929 7.678 0 10.606z"/><path d="m307.736 129.391c.939.389 1.911.573 2.867.573 2.943 0 5.736-1.744 6.932-4.632l24.492-59.128c1.585-3.827-.232-8.214-4.059-9.799-3.827-1.584-8.214.232-9.799 4.059l-24.492 59.128c-1.585 3.826.233 8.213 4.059 9.799z"/><path d="m203.264 381.609c-3.829-1.584-8.215.232-9.799 4.059l-24.492 59.128c-1.585 3.827.232 8.214 4.059 9.799.939.389 1.911.573 2.867.573 2.943 0 5.736-1.744 6.932-4.632l24.492-59.128c1.585-3.826-.233-8.213-4.059-9.799z"/><path d="m129.391 307.736c-1.585-3.827-5.972-5.643-9.799-4.059l-59.128 24.492c-3.827 1.585-5.644 5.973-4.059 9.799 1.196 2.888 3.989 4.632 6.932 4.632.957 0 1.929-.184 2.867-.573l59.128-24.492c3.826-1.585 5.644-5.972 4.059-9.799z"/><path d="m381.609 203.264c1.196 2.888 3.989 4.632 6.932 4.632.957 0 1.929-.184 2.867-.573l59.128-24.492c3.827-1.585 5.644-5.973 4.059-9.799-1.585-3.827-5.973-5.643-9.799-4.059l-59.128 24.492c-3.826 1.585-5.644 5.972-4.059 9.799z"/><path d="m60.463 182.831 59.128 24.492c.938.389 1.911.573 2.867.573 2.943 0 5.736-1.744 6.932-4.632 1.585-3.827-.232-8.214-4.059-9.799l-59.128-24.492c-3.829-1.584-8.214.232-9.799 4.059-1.585 3.826.232 8.214 4.059 9.799z"/><path d="m450.537 328.169-59.128-24.492c-3.827-1.584-8.214.232-9.799 4.059s.232 8.214 4.059 9.799l59.128 24.492c.939.389 1.911.573 2.867.573 2.943 0 5.736-1.744 6.932-4.632 1.585-3.826-.232-8.214-4.059-9.799z"/></g></svg>