<svg enable-background="new 0 0 512 512" viewBox="0 0 512 512" xmlns="http://www.w3.org/2000/svg"><g fill="#ffcf00"><circle cx="256" cy="256" r="112"/><path d="m256 72c4.422 0 8-3.582 8-8v-56c0-4.418-3.578-8-8-8s-8 3.582-8 8v56c0 4.418 3.578 8 8 8z"/><path d="m256 120c4.422 0 8-3.582 8-8v-16c0-4.418-3.578-8-8-8s-8 3.582-8 8v16c0 4.418 3.578 8 8 8z"/><path d="m256 440c-4.422 0-8 3.578-8 8v56c0 4.422 3.578 8 8 8s8-3.578 8-8v-56c0-4.422-3.578-8-8-8z"/><path d="m256 392c-4.422 0-8 3.578-8 8v16c0 4.422 3.578 8 8 8s8-3.578 8-8v-16c0-4.422-3.578-8-8-8z"/><path d="m504 248h-56c-4.422 0-8 3.578-8 8s3.578 8 8 8h56c4.422 0 8-3.578 8-8s-3.578-8-8-8z"/><path d="m400 248c-4.422 0-8 3.578-8 8s3.578 8 8 8h16c4.422 0 8-3.578 8-8s-3.578-8-8-8z"/><path d="m72 256c0-4.422-3.578-8-8-8h-56c-4.422 0-8 3.578-8 8s3.578 8 8 8h56c4.422 0 8-3.578 8-8z"/><path d="m112 248h-16c-4.422 0-8 3.578-8 8s3.578 8 8 8h16c4.422 0 8-3.578 8-8s-3.578-8-8-8z"/></g><path d="m148.523 352.164-66.18 66.18c-3.125 3.125-3.125 8.188 0 11.313 1.563 1.562 3.61 2.343 5.657 2.343s4.094-.781 5.656-2.344l66.18-66.18c3.125-3.125 3.125-8.188 0-11.313s-8.188-3.124-11.313.001z" fill="#ff9300"/><path d="m357.82 162.176c2.047 0 4.094-.781 5.656-2.344l66.18-66.176c3.125-3.125 3.125-8.188 0-11.313s-8.187-3.125-11.312 0l-66.18 66.176c-3.125 3.125-3.125 8.188 0 11.313 1.562 1.563 3.609 2.344 5.656 2.344z" fill="#ff9300"/><path d="m193.5 126.023c1.273 3.078 4.258 4.941 7.391 4.941 1.023 0 2.063-.199 3.063-.613 4.078-1.691 6.016-6.371 4.328-10.453l-24.493-59.128c-1.688-4.082-6.383-6-10.453-4.328-4.078 1.691-6.016 6.371-4.328 10.453z" fill="#ff7400"/><path d="m318.5 385.976c-1.695-4.078-6.383-6-10.453-4.328-4.078 1.688-6.016 6.367-4.328 10.453l24.492 59.125c1.273 3.078 4.258 4.938 7.391 4.938 1.023 0 2.063-.195 3.063-.609 4.078-1.688 6.016-6.367 4.328-10.453z" fill="#ff7400"/><path d="m363.476 352.164c-3.125-3.125-8.188-3.125-11.313 0s-3.125 8.188 0 11.313l66.18 66.18c1.563 1.563 3.609 2.344 5.656 2.344s4.094-.781 5.656-2.344c3.125-3.125 3.125-8.188 0-11.313z" fill="#ff9300"/><path d="m148.523 159.832c1.563 1.563 3.609 2.344 5.656 2.344s4.094-.781 5.656-2.344c3.125-3.125 3.125-8.188 0-11.313l-66.18-66.176c-3.125-3.125-8.188-3.125-11.313 0s-3.125 8.188 0 11.313z" fill="#ff9300"/><path d="m308.047 130.352c1 .414 2.039.613 3.063.613 3.133 0 6.117-1.863 7.391-4.941l24.492-59.129c1.688-4.082-.25-8.762-4.328-10.453-4.055-1.676-8.766.242-10.453 4.328l-24.492 59.129c-1.689 4.081.249 8.761 4.327 10.453z" fill="#ff7400"/><path d="m203.953 381.648c-4.055-1.68-8.766.242-10.453 4.328l-24.492 59.125c-1.688 4.086.25 8.766 4.328 10.453 1 .414 2.039.609 3.063.609 3.133 0 6.117-1.859 7.391-4.938l24.492-59.125c1.687-4.085-.251-8.764-4.329-10.452z" fill="#ff7400"/><path d="m130.352 308.047c-1.688-4.086-6.391-6.016-10.453-4.328l-59.125 24.492c-4.078 1.688-6.016 6.367-4.328 10.453 1.273 3.078 4.258 4.938 7.391 4.938 1.023 0 2.063-.195 3.063-.609l59.125-24.492c4.077-1.689 6.014-6.368 4.327-10.454z" fill="#ff7400"/><path d="m381.648 203.953c1.273 3.078 4.258 4.938 7.391 4.938 1.023 0 2.063-.195 3.063-.609l59.125-24.492c4.078-1.688 6.016-6.367 4.328-10.453-1.688-4.078-6.391-6-10.453-4.328l-59.126 24.491c-4.078 1.687-6.015 6.367-4.328 10.453z" fill="#ff7400"/><path d="m60.773 183.789 59.125 24.492c1 .414 2.039.609 3.063.609 3.133 0 6.117-1.859 7.391-4.938 1.688-4.086-.25-8.766-4.328-10.453l-59.125-24.492c-4.063-1.676-8.766.25-10.453 4.328-1.688 4.087.249 8.767 4.327 10.454z" fill="#ff7400"/><path d="m451.226 328.211-59.125-24.492c-4.063-1.688-8.766.242-10.453 4.328s.25 8.766 4.328 10.453l59.125 24.492c1 .414 2.039.609 3.063.609 3.133 0 6.117-1.859 7.391-4.938 1.687-4.085-.251-8.765-4.329-10.452z" fill="#ff7400"/></svg>